#!OML:ASF I:\Actors\actors\Patient Classification 1\Patient 1\Session 1\Subject1.ASF
:FULLY-SPECIFIED
:DEGREES
883
root 0.565029 17.6698 8.53855 19.7267 5.41578 -8.56869
lowerback 12.156 2.85004 5.75733
upperback -5.62271 5.88371 7.83483
thorax -13.4619 2.73772 4.10546
lowerneck -1.72192 -16.2736 -11.57
upperneck 1.25306 -22.0405 14.9685
head 3.60006 -10.8382 4.94869
rclavicle 1.59028e-015 6.52014e-014
rhumerus 37.0891 -37.5934 -62.1122
rradius 66.6057
rwrist -12.1716
rhand -21.1385 -43.6004
rfingers 7.12502
rthumb 5.24059 -73.5156
lclavicle 1.59028e-015 6.52014e-014
lhumerus -39.7301 -74.2636 108.6
lradius 105.911
lwrist 21.3642
lhand -15.4251 -18.2118
lfingers 7.12502
lthumb 10.7547 11.4929
rfemur -14.9623 24.8623 17.9266
rtibia 1.49292
rfoot -15.6117 -35.8091
rtoes 13.8319
lfemur -16.3025 -54.2786 4.54547
ltibia -4.01121
lfoot -29.0098 60.5331
ltoes 17.0139
884
root 0.567883 17.6687 8.53509 19.7435 5.258 -8.55926
lowerback 12.1525 2.8789 5.80465
upperback -5.62368 5.93108 7.84044
thorax -13.4593 2.75588 4.07435
lowerneck -1.72596 -16.2731 -11.5724
upperneck 1.2558 -22.0373 14.9364
head 3.5974 -10.8368 4.94011
rclavicle 3.53837e-014 2.8625e-014
rhumerus 37.7125 -37.708 -63.0278
rradius 67.0797
rwrist -12.3215
rhand -21.8669 -45.3624
rfingers 7.12502
rthumb 4.53733 -75.2938
lclavicle 3.53837e-014 2.8625e-014
lhumerus -39.9784 -74.2667 108.803
lradius 105.89
lwrist 21.3127
lhand -15.4488 -18.2996
lfingers 7.12502
lthumb 10.7319 11.4063
rfemur -15.0044 24.951 17.8507
rtibia 1.47926
rfoot -15.6333 -35.7788
rtoes 13.7198
lfemur -16.1761 -54.1651 4.38859
ltibia -4.04732
lfoot -29.1769 60.4957
ltoes 17.1409
885
root 0.570421 17.6685 8.5321 19.7542 5.1434 -8.5447
lowerback 12.1295 2.89148 5.84099
upperback -5.62608 5.95517 7.86665
thorax -13.4493 2.76578 4.07902
lowerneck -1.5969 -16.2145 -11.645
upperneck 1.13079 -21.9584 15.0125
head 3.54647 -10.8059 4.99559
rclavicle 6.36111e-015 -1.7175e-013
rhumerus 38.7426 -38.0243 -64.5774
rradius 67.6467
rwrist -12.4474
rhand -22.4896 -46.8737
rfingers 7.12502
rthumb 3.93595 -76.8171
lclavicle 6.36111e-015 -1.7175e-013
lhumerus -40.1029 -74.3344 108.891
lradius 105.877
lwrist 21.341
lhand -15.4666 -18.4074
lfingers 7.12502
lthumb 10.7147 11.2994
rfemur -15.0225 25.0033 17.7858
rtibia 1.44971
rfoot -15.6392 -35.7314
rtoes 13.6963
lfemur -16.0607 -54.095 4.24608
ltibia -4.07245
lfoot -30.0375 60.2935
ltoes 18.0951
886
root 0.572037 17.6684 8.52972 19.7527 5.05033 -8.51569
lowerback 12.1109 2.88474 5.84162
upperback -5.63463 5.95097 7.91323
thorax -13.4545 2.76687 4.13356
lowerneck -1.4544 -16.1529 -11.6739
upperneck 0.983871 -21.8691 14.9977
head 3.46955 -10.7724 5.02418
rclavicle -4.37326e-015 -6.99722e-014
rhumerus 40.1516 -38.4607 -66.5953
rradius 68.1692
rwrist -12.8245
rhand -23.0838 -48.1813
rfingers 7.12502
rthumb 3.36219 -78.1345
lclavicle -4.37326e-015 -6.99722e-014
lhumerus -40.1144 -74.3852 108.865
lradius 105.895
lwrist 21.4664
lhand -15.3492 -18.3919
lfingers 7.12502
lthumb 10.8279 11.309
rfemur -15.0173 24.9946 17.731
rtibia 1.41966
rfoot -15.5797 -35.6666
rtoes 13.6889
lfemur -15.9508 -54.0512 4.09953
ltibia -4.08375
lfoot -30.7173 60.093
ltoes 18.9356
887
root 0.572276 17.6684 8.52714 19.7507 4.99392 -8.49886
lowerback 12.1256 2.87459 5.84325
upperback -5.66253 5.95077 7.97188
thorax -13.5054 2.76997 4.1999
lowerneck -1.46433 -16.1538 -11.5644
upperneck 0.9597 -21.8509 14.7249
head 3.41632 -10.7676 4.9386
rclavicle 3.1408e-014 -1.1609e-013
rhumerus 41.3384 -38.8715 -68.335
rradius 68.689
rwrist -13.5151
rhand -23.6835 -49.5031
rfingers 7.12502
rthumb 2.78304 -79.4647
lclavicle 3.1408e-014 -1.1609e-013
lhumerus -40.146 -74.4121 108.875
lradius 105.891
lwrist 21.5126
lhand -15.1885 -18.3003
lfingers 7.12502
lthumb 10.9829 11.3924
rfemur -15.0151 25.0718 17.6845
rtibia 1.38758
rfoot -15.5828 -35.7076
rtoes 13.7822
lfemur -15.9185 -54.0197 4.04738
ltibia -4.09558
lfoot -30.5374 60.1088
ltoes 18.7777
888
root 0.572527 17.6685 8.52412 19.7483 4.99412 -8.50444
lowerback 12.1389 2.87429 5.89842
upperback -5.6937 5.97196 8.01746
thorax -13.5532 2.77746 4.21655
lowerneck -1.4538 -16.1671 -11.3797
upperneck 0.886377 -21.8468 14.4351
head 3.33695 -10.7719 4.84182
rclavicle -1.11319e-014 -4.92986e-014
rhumerus 42.4846 -39.3845 -69.9576
rradius 68.9804
rwrist -14.1649
rhand -24.1947 -50.5348
rfingers 7.12502
rthumb 2.28936 -80.5022
lclavicle -1.11319e-014 -4.92986e-014
lhumerus -40.2633 -74.5314 108.933
lradius 105.912
lwrist 21.4868
lhand -15.1513 -18.2829
lfingers 7.12502
lthumb 11.0189 11.4079
rfemur -15.0122 25.1962 17.6631
rtibia 1.35684
rfoot -15.6435 -35.807
rtoes 13.8856
lfemur -15.9735 -54.0173 4.10676
ltibia -4.09897
lfoot -30.1346 60.2147
ltoes 18.3298
889
root 0.574633 17.6682 8.52022 19.7604 5.02314 -8.4974
lowerback 12.1447 2.86987 5.98488
upperback -5.72844 5.99087 8.05021
thorax -13.5956 2.78018 4.20205
lowerneck -1.3181 -16.1356 -11.2637
upperneck 0.743233 -21.7934 14.2905
head 3.23597 -10.7565 4.81268
rclavicle -7.95139e-015 -4.45278e-014
rhumerus 43.8831 -39.9752 -71.6557
rradius 68.7771
rwrist -14.8404
rhand -24.5277 -51.2127
rfingers 7.12502
rthumb 1.96768 -81.1833
lclavicle -7.95139e-015 -4.45278e-014
lhumerus -40.3514 -74.697 108.97
lradius 105.913
lwrist 21.4597
lhand -15.1932 -18.278
lfingers 7.12502
lthumb 10.9784 11.4149
rfemur -15.0307 25.1898 17.6375
rtibia 1.33953
rfoot -15.5949 -35.8427
rtoes 13.7196
lfemur -16.0693 -54.0453 4.17533
ltibia -4.07552
lfoot -29.8877 60.2673
ltoes 18.0803
